<svg xmlns="http://www.w3.org/2000/svg" width="236" height="68" viewBox="0 0 236 68" fill="none">
			<g filter="url(#filter0_d)">
					<path d="M215.824 40.2715C215.824 38.8946 215.628 37.6561 215.275 36.5629C214.923 35.4697 214.374 34.5495 213.7 33.7746C213.026 32.9997 212.188 32.4323 211.224 32.0103C210.26 31.5882 209.163 31.4083 207.973 31.4083C206.813 31.4083 205.755 31.6228 204.791 32.0103C203.827 32.4323 203.02 32.9997 202.314 33.7746C201.609 34.5495 201.092 35.4697 200.708 36.5629C200.323 37.6561 200.128 38.8946 200.128 40.2715C200.128 41.6829 200.323 42.956 200.708 44.0492C201.092 45.1424 201.672 46.0972 202.377 46.8375C203.083 47.6124 203.953 48.1798 204.948 48.5672C205.944 48.9547 207.072 49.1692 208.294 49.1692C209.195 49.1692 210.033 49.0654 210.802 48.8509C211.577 48.6364 212.282 48.3182 212.925 47.8961C213.536 47.474 214.084 46.9413 214.5 46.3393C214.916 45.7374 215.206 44.9971 215.401 44.2222H213.599C213.536 44.7549 213.341 45.2116 213.02 45.6336C212.698 46.0557 212.282 46.374 211.797 46.6576C211.312 46.9413 210.77 47.1489 210.159 47.2942C209.548 47.4325 208.937 47.5086 208.357 47.5086C207.487 47.5086 206.687 47.3703 205.975 47.0866C205.238 46.8029 204.589 46.3809 204.047 45.8135C203.499 45.2462 203.02 44.5404 202.699 43.6963C202.346 42.8453 202.119 41.8628 202.056 40.6935H215.918V40.2715H215.824ZM201.993 38.9292C202.157 37.9398 202.409 37.0957 202.768 36.383C203.121 35.6427 203.575 35.0408 204.085 34.5841C204.602 34.0929 205.213 33.7331 205.855 33.5255C206.53 33.2764 207.242 33.1726 208.01 33.1726C209.554 33.1726 210.871 33.6639 211.967 34.6187C213.026 35.5735 213.706 37.0196 214.028 38.9638H201.999V38.9292H201.993Z" fill="#F5FCFF"/>
					<path d="M160.835 48.9272H158.876V37.4487C158.876 35.7535 158.586 34.5497 158.038 33.8093C157.458 33.069 156.494 32.6816 155.045 32.6816C153.986 32.6816 152.984 32.9652 151.989 33.5672C150.993 34.1691 150.029 35.0132 149.097 36.1133V48.9341H147.137V37.4556C147.137 36.6046 147.074 35.8989 146.942 35.3038C146.816 34.7019 146.62 34.2106 146.33 33.8232C146.041 33.4357 145.656 33.1521 145.171 32.9722C144.686 32.7923 144.113 32.6885 143.401 32.6885C142.373 32.6885 141.372 32.9722 140.439 33.5741C139.507 34.176 138.574 35.0202 137.61 36.1203V48.941H135.65V31.3531H137.61V33.9685C138.253 33.2973 138.895 32.73 139.475 32.3425C140.055 31.9551 140.603 31.6368 141.113 31.4223C141.624 31.2078 142.109 31.0695 142.594 31.0003C143.079 30.9311 143.495 30.8965 143.942 30.8965C145.165 30.8965 146.223 31.1801 147.093 31.706C147.962 32.2387 148.605 33.0482 148.989 34.1414C149.475 33.5049 149.985 32.9791 150.533 32.5501C151.081 32.1211 151.63 31.8098 152.203 31.5607C152.783 31.3116 153.331 31.1386 153.91 31.0695C154.49 30.9657 155.038 30.9311 155.58 30.9311C159.084 30.9311 160.854 33.0483 160.854 37.3241V48.941H160.835V48.9272Z" fill="#F5FCFF"/>
					<path d="M166.865 30.8062H164.647V48.996H166.865V30.8062Z" fill="#F5FCFF"/>
					<path d="M166.903 23.3199H164.686V26.2536H166.903V23.3199Z" fill="#F5FCFF"/>
					<path d="M176.972 49.2798C172.82 49.2798 170.539 47.5847 170.154 44.1598H171.925C172.051 45.2184 172.536 46.0348 173.343 46.5953C174.149 47.1972 175.371 47.4809 176.947 47.4809C177.722 47.4809 178.396 47.4117 178.976 47.2318C179.555 47.0519 180.034 46.8444 180.425 46.5261C180.809 46.2424 181.099 45.8896 181.294 45.5021C181.49 45.1146 181.584 44.6511 181.584 44.1944C181.584 43.7378 181.521 43.3434 181.357 42.9905C181.194 42.6723 180.941 42.354 180.519 42.1049C180.135 41.8212 179.555 41.5721 178.881 41.33C178.175 41.0809 177.306 40.8387 176.209 40.5551C175.277 40.306 174.47 40.0638 173.765 39.8147C173.059 39.5657 172.448 39.2474 171.963 38.8599C171.477 38.4725 171.093 38.0504 170.866 37.5177C170.608 36.9849 170.482 36.3138 170.482 35.5389C170.482 34.8677 170.608 34.2312 170.898 33.6638C171.188 33.0965 171.572 32.6398 172.089 32.2524C172.605 31.8649 173.217 31.5812 173.954 31.3667C174.691 31.1523 175.497 31.0485 176.399 31.0485C178.427 31.0485 179.94 31.4013 180.998 32.0725C182.025 32.7782 182.636 33.8714 182.737 35.359H180.967C180.841 34.5079 180.45 33.8368 179.744 33.4493C179.039 33.0273 178.005 32.8474 176.657 32.8474C176.014 32.8474 175.434 32.9166 174.886 33.0273C174.338 33.138 173.891 33.311 173.5 33.56C173.116 33.8091 172.826 34.0928 172.599 34.4457C172.372 34.7985 172.278 35.186 172.278 35.6496C172.278 35.8986 172.309 36.1823 172.404 36.4245C172.498 36.7082 172.725 36.9572 173.078 37.234C173.431 37.5177 173.979 37.8013 174.685 38.085C175.39 38.3687 176.392 38.6869 177.615 39.0052C178.579 39.2543 179.448 39.538 180.154 39.7802C180.86 40.0638 181.471 40.3821 181.956 40.7696C182.441 41.157 182.794 41.5791 183.014 42.1118C183.241 42.6031 183.367 43.205 183.367 43.9108C183.367 44.6857 183.204 45.3914 182.92 46.0279C182.63 46.6991 182.214 47.2664 181.666 47.7231C181.118 48.2143 180.444 48.5741 179.669 48.8508C178.9 49.1414 177.936 49.2798 176.972 49.2798Z" fill="#F5FCFF"/>
					<path d="M191.93 49.2798C187.778 49.2798 185.497 47.5847 185.112 44.1598H186.883C187.009 45.2184 187.494 46.0348 188.301 46.5953C189.107 47.1972 190.329 47.4809 191.905 47.4809C192.68 47.4809 193.354 47.4117 193.934 47.2318C194.513 47.0519 194.992 46.8444 195.383 46.5261C195.767 46.2424 196.057 45.8896 196.252 45.5021C196.448 45.1146 196.542 44.6511 196.542 44.1944C196.542 43.7378 196.479 43.3434 196.315 42.9905C196.152 42.6723 195.899 42.354 195.477 42.1049C195.093 41.8212 194.513 41.5721 193.839 41.33C193.133 41.0809 192.264 40.8387 191.168 40.5551C190.235 40.306 189.428 40.0638 188.723 39.8147C188.017 39.5657 187.406 39.2474 186.921 38.8599C186.435 38.4725 186.051 38.0504 185.824 37.5177C185.566 36.9849 185.44 36.3138 185.44 35.5389C185.44 34.8677 185.566 34.2312 185.856 33.6638C186.146 33.0965 186.53 32.6398 187.047 32.2524C187.563 31.8649 188.175 31.5812 188.912 31.3667C189.649 31.1523 190.455 31.0485 191.357 31.0485C193.385 31.0485 194.898 31.4013 195.956 32.0725C196.983 32.7782 197.563 33.8714 197.695 35.359H195.925C195.799 34.5079 195.408 33.8368 194.702 33.4493C193.997 33.0273 192.963 32.8474 191.615 32.8474C190.972 32.8474 190.392 32.9166 189.844 33.0273C189.296 33.138 188.849 33.311 188.458 33.56C188.074 33.8091 187.784 34.0928 187.557 34.4457C187.33 34.7985 187.236 35.186 187.236 35.6496C187.236 35.8986 187.267 36.1823 187.362 36.4245C187.456 36.7082 187.683 36.9572 188.036 37.234C188.389 37.5177 188.937 37.8013 189.643 38.085C190.348 38.3687 191.35 38.6869 192.573 39.0052C193.537 39.2543 194.406 39.538 195.112 39.7802C195.818 40.0638 196.429 40.3821 196.914 40.7696C197.399 41.157 197.752 41.5791 197.972 42.1118C198.199 42.6031 198.325 43.205 198.325 43.9108C198.325 44.6857 198.162 45.3914 197.878 46.0279C197.588 46.6991 197.172 47.2664 196.624 47.7231C196.076 48.2143 195.402 48.5741 194.627 48.8508C193.795 49.176 192.894 49.2798 191.93 49.2798Z" fill="#F5FCFF"/>
					<path d="M231.103 23.7767V32.8544C230.555 32.3631 230.007 31.9687 229.465 31.692C228.948 31.4083 228.438 31.2007 227.953 31.0208C227.468 30.8825 226.989 30.7718 226.535 30.7372C226.088 30.7026 225.634 30.668 225.218 30.668C224.191 30.668 223.259 30.8825 222.389 31.3391C221.52 31.7612 220.751 32.3977 220.108 33.2141C219.466 34.0236 218.949 35.013 218.596 36.2169C218.243 37.3793 218.048 38.7216 218.048 40.1746C218.048 41.5514 218.212 42.8245 218.495 43.9523C218.779 45.0801 219.232 46.0349 219.844 46.8513C220.423 47.6608 221.16 48.2628 222.03 48.7264C222.9 49.183 223.895 49.3975 225.054 49.3975C225.502 49.3975 225.956 49.3629 226.441 49.2937C226.926 49.2245 227.405 49.0792 227.921 48.9063C228.438 48.6918 228.948 48.415 229.497 48.0206C230.045 47.6332 230.593 47.135 231.135 46.4639V48.9339H233V23.7767H231.103ZM231.103 43.9454C230.234 45.1493 229.333 46.028 228.4 46.6299C227.468 47.2319 226.441 47.5501 225.313 47.5501C223.605 47.5501 222.288 46.9136 221.324 45.6751C220.36 44.402 219.907 42.5685 219.907 40.1677C219.907 38.8946 220.033 37.7668 220.291 36.812C220.549 35.8572 220.934 35.0476 221.419 34.4111C221.904 33.7746 222.477 33.3179 223.158 32.9996C223.832 32.6814 224.607 32.543 225.439 32.543C226.535 32.543 227.562 32.7575 228.463 33.1795C229.364 33.6016 230.265 34.2381 231.103 35.1238V43.9454Z" fill="#F5FCFF"/>
			</g>
			<g filter="url(#filter1_d)">
					<path d="M37.7097 33.0698V48.9626H36.0022V33.0698H33.4629V31.2363H36.0022V29.1883C36.0022 25.5144 37.3506 23.7155 40.0222 23.7155C40.312 23.7155 40.5703 23.7154 40.8602 23.75C41.15 23.75 41.3769 23.7846 41.5659 23.8192V25.5835C41.4399 25.5835 41.339 25.549 41.276 25.549C41.1815 25.549 41.1122 25.549 41.0492 25.549C40.438 25.549 39.8898 25.6182 39.474 25.7289C39.0581 25.8326 38.699 26.0471 38.4154 26.3308C38.1571 26.6145 37.9681 27.0019 37.8357 27.4586C37.7097 27.9152 37.6719 28.5172 37.6719 29.2229V31.2363H40.7909V33.0698H37.7097Z" fill="#D9E6E8"/>
					<path d="M57.6518 36.4603C57.2674 35.3671 56.7192 34.4469 56.0135 33.672C55.3078 32.8971 54.4383 32.3297 53.4112 31.9423C52.3842 31.5548 51.2563 31.3403 50.0024 31.3403C48.7486 31.3403 47.6207 31.5548 46.6251 31.9423C45.5981 32.3297 44.7286 32.9317 44.0229 33.672C43.3172 34.4123 42.769 35.3671 42.3531 36.4603C41.9688 37.5535 41.7734 38.792 41.7734 40.2035C41.7734 41.6149 41.9688 42.888 42.3846 43.9812C42.769 45.0744 43.3487 46.0292 44.0544 46.7695C44.7601 47.5444 45.6296 48.1118 46.6251 48.4992C47.6207 48.8867 48.7486 49.1012 50.0024 49.1012C51.2563 49.1012 52.3842 48.8867 53.3797 48.4992C54.4068 48.1118 55.2763 47.5098 55.982 46.7695C56.6877 45.9946 57.2359 45.0744 57.6518 43.9812C58.0361 42.888 58.2315 41.6149 58.2315 40.2035C58.1999 38.792 58.0046 37.5535 57.6518 36.4603ZM55.8497 43.2755C55.5284 44.1611 55.1125 44.936 54.5643 45.5379C54.0161 46.1399 53.3419 46.5965 52.5669 46.8802C51.7919 47.1639 50.9287 47.3369 49.9961 47.3369C49.0321 47.3369 48.1626 47.1985 47.4254 46.8802C46.6504 46.5965 45.9762 46.1399 45.428 45.5379C44.8798 44.936 44.4324 44.1957 44.1426 43.2755C43.8527 42.3898 43.6952 41.3312 43.6952 40.1343C43.6952 38.9719 43.859 37.9064 44.1426 37.0277C44.4324 36.1421 44.8798 35.4017 45.428 34.7998C45.9762 34.1978 46.6504 33.7758 47.4254 33.4575C48.2004 33.1738 49.0636 33.0009 49.9961 33.0009C50.9287 33.0009 51.7982 33.1392 52.5669 33.4575C53.3419 33.7412 54.0161 34.1978 54.5643 34.7998C55.1125 35.4017 55.5599 36.1421 55.8497 37.0277C56.1711 37.9133 56.2971 38.9719 56.2971 40.1343C56.3034 41.3658 56.1395 42.3898 55.8497 43.2755Z" fill="#D9E6E8"/>
					<path d="M69.4222 32.751C69.2269 32.7164 69.0378 32.7164 68.8425 32.7164C68.6472 32.7164 68.4267 32.7164 68.1368 32.7164C67.5886 32.7164 67.0405 32.8202 66.5301 33.0347C66.0134 33.2492 65.5345 33.5259 65.0494 33.8442C64.5642 34.1971 64.1483 34.5845 63.7325 35.0066C63.3166 35.4286 62.9953 35.8922 62.7054 36.3143V48.8859H60.7773V31.3326H62.7054V33.7681C63.2536 33.1662 63.8018 32.6749 64.3437 32.2874C64.8855 31.9 65.4022 31.6163 65.9189 31.4018C66.4356 31.1873 66.9144 31.049 67.3996 30.9798C67.8848 30.9106 68.3006 30.876 68.685 30.876C68.811 30.876 68.9433 30.876 69.0378 30.876C69.1639 30.876 69.2962 30.9106 69.4222 30.9106V32.751Z" fill="#D9E6E8"/>
					<path d="M128.16 32.7514C127.964 32.7168 127.775 32.7167 127.58 32.7167C127.385 32.7167 127.164 32.7167 126.874 32.7167C126.326 32.7167 125.778 32.8205 125.267 33.035C124.751 33.2495 124.272 33.5263 123.787 33.8445C123.302 34.1974 122.886 34.5849 122.47 35.0069C122.054 35.429 121.733 35.8925 121.443 36.3492V48.9624H119.515V31.3745H121.443V33.8099C121.991 33.208 122.539 32.7168 123.081 32.3293C123.629 31.9418 124.14 31.6582 124.656 31.4437C125.173 31.2292 125.652 31.0908 126.137 31.0216C126.622 30.9524 127.038 30.9178 127.422 30.9178C127.548 30.9178 127.681 30.9178 127.775 30.9178C127.901 30.9178 128.034 30.9524 128.16 30.9524V32.7514Z" fill="#D9E6E8"/>
					<path d="M85.0931 40.2716C85.0931 38.8947 84.8977 37.6562 84.5449 36.563C84.192 35.4698 83.6439 34.5496 82.9697 33.7747C82.2955 32.9998 81.4574 32.4324 80.4934 32.0104C79.5294 31.5883 78.433 31.4084 77.2421 31.4084C76.0827 31.4084 75.0242 31.6229 74.0601 32.0104C73.0961 32.4324 72.2896 32.9998 71.5839 33.7747C70.8782 34.5496 70.3615 35.4698 69.9771 36.563C69.5928 37.6562 69.3975 38.8947 69.3975 40.2716C69.3975 41.683 69.5928 42.9561 69.9771 44.0493C70.3615 45.1425 70.9412 46.0973 71.6469 46.8376C72.3526 47.6126 73.2221 48.1799 74.2177 48.5674C75.2132 48.9548 76.3411 49.1693 77.5635 49.1693C78.4645 49.1693 79.3025 49.0655 80.0712 48.851C80.8462 48.6366 81.5519 48.3183 82.1946 47.8962C82.8058 47.4742 83.354 46.9414 83.7699 46.3395C84.1857 45.7375 84.4756 44.9972 84.6709 44.2223H82.8688C82.8058 44.755 82.6105 45.2117 82.2892 45.6337C81.9678 46.0558 81.552 46.3741 81.0668 46.6578C80.5816 46.9414 80.0397 47.149 79.4285 47.2943C78.8173 47.4327 78.2062 47.5088 77.6265 47.5088C76.7569 47.5088 75.9567 47.3704 75.2447 47.0867C74.5075 46.803 73.8585 46.381 73.3166 45.8136C72.7685 45.2463 72.2896 44.5406 71.9682 43.6965C71.6154 42.8454 71.3886 41.8629 71.3255 40.6936H85.1876V40.2716H85.0931ZM71.2247 38.9293C71.3886 37.9399 71.6406 37.0958 71.9997 36.3832C72.3526 35.6428 72.8063 35.0409 73.3166 34.5842C73.8333 34.093 74.4445 33.7332 75.0872 33.5256C75.7614 33.2766 76.4734 33.1728 77.2421 33.1728C78.7858 33.1728 80.1027 33.664 81.1991 34.6188C82.2577 35.5736 82.9382 37.0197 83.2595 38.9639H71.231V38.9293H71.2247Z" fill="#D9E6E8"/>
					<path d="M117.801 40.2716C117.801 38.8947 117.606 37.6562 117.253 36.563C116.9 35.4698 116.352 34.5496 115.678 33.7747C115.003 32.9998 114.165 32.4324 113.201 32.0104C112.237 31.5883 111.141 31.4084 109.95 31.4084C108.791 31.4084 107.732 31.6229 106.768 32.0104C105.804 32.4324 104.998 32.9998 104.292 33.7747C103.586 34.5496 103.069 35.4698 102.685 36.563C102.301 37.6562 102.105 38.8947 102.105 40.2716C102.105 41.683 102.301 42.9561 102.685 44.0493C103.069 45.1425 103.649 46.0973 104.355 46.8376C105.061 47.6126 105.93 48.1799 106.926 48.5674C107.921 48.9548 109.049 49.1693 110.271 49.1693C111.172 49.1693 112.011 49.0655 112.779 48.851C113.554 48.6366 114.26 48.3183 114.903 47.8962C115.514 47.4742 116.062 46.9414 116.478 46.3395C116.894 45.7375 117.184 44.9972 117.379 44.2223H115.577C115.514 44.755 115.319 45.2117 114.997 45.6337C114.676 46.0558 114.26 46.3741 113.775 46.6578C113.29 46.9414 112.748 47.149 112.137 47.2943C111.525 47.4327 110.914 47.5088 110.334 47.5088C109.465 47.5088 108.665 47.3704 107.953 47.0867C107.216 46.803 106.567 46.381 106.025 45.8136C105.476 45.2463 104.998 44.5406 104.676 43.6965C104.323 42.8454 104.097 41.8629 104.034 40.6936H117.896V40.2716H117.801ZM103.939 38.9293C104.103 37.9399 104.355 37.0958 104.714 36.3832C105.067 35.6428 105.521 35.0409 106.031 34.5842C106.548 34.093 107.159 33.7332 107.802 33.5256C108.476 33.2766 109.188 33.1728 109.956 33.1728C111.5 33.1728 112.817 33.664 113.913 34.6188C114.972 35.5736 115.652 37.0197 115.974 38.9639H103.945V38.9293H103.939Z" fill="#D9E6E8"/>
					<path d="M100.82 31.0562L94.0654 48.9277H92.3894L85.6348 31.0562H87.4999L93.2274 46.3816L98.9864 31.0562H100.82Z" fill="#D9E6E8"/>
			</g>
			<g filter="url(#filter2_d)">
					<path d="M9.94102 57.5829C9.94102 57.5829 6.4692 49.2802 10.0355 40.3963C12.9592 33.1107 11.6486 26.7453 10.2939 22.6493C13.7027 27.8039 19.5877 45.1496 12.5748 65C31.8052 44.2917 20.1989 9.0813 2.3484 1C5.96513 3.74681 7.20012 7.41383 7.46476 10.6173C7.72309 13.7654 7.02999 16.9274 5.59338 19.6673C3.95514 22.7877 1 29.1738 1 34.6329C1 42.1814 4.60413 49.1003 9.94102 57.5829Z" fill="#F5FCFF"/>
			</g>
			<defs>
					<filter id="filter0_d" x="134.65" y="22.3199" width="101.35" height="30.0775" filterUnits="userSpaceOnUse" color-interpolation-filters="sRGB">
							<feFlood flood-opacity="0" result="BackgroundImageFix"/>
							<feColorMatrix in="SourceAlpha" type="matrix" values="0 0 0 0 0 0 0 0 0 0 0 0 0 0 0 0 0 0 127 0"/>
							<feOffset dx="1" dy="1"/>
							<feGaussianBlur stdDeviation="1"/>
							<feColorMatrix type="matrix" values="0 0 0 0 0.533333 0 0 0 0 0.619608 0 0 0 0 0.639216 0 0 0 0.6 0"/>
							<feBlend mode="normal" in2="BackgroundImageFix" result="effect1_dropShadow"/>
							<feBlend mode="normal" in="SourceGraphic" in2="effect1_dropShadow" result="shape"/>
					</filter>
					<filter id="filter1_d" x="32.4629" y="22.7155" width="98.6966" height="29.4538" filterUnits="userSpaceOnUse" color-interpolation-filters="sRGB">
							<feFlood flood-opacity="0" result="BackgroundImageFix"/>
							<feColorMatrix in="SourceAlpha" type="matrix" values="0 0 0 0 0 0 0 0 0 0 0 0 0 0 0 0 0 0 127 0"/>
							<feOffset dx="1" dy="1"/>
							<feGaussianBlur stdDeviation="1"/>
							<feColorMatrix type="matrix" values="0 0 0 0 0.533333 0 0 0 0 0.619608 0 0 0 0 0.639216 0 0 0 0.6 0"/>
							<feBlend mode="normal" in2="BackgroundImageFix" result="effect1_dropShadow"/>
							<feBlend mode="normal" in="SourceGraphic" in2="effect1_dropShadow" result="shape"/>
					</filter>
					<filter id="filter2_d" x="0" y="0" width="25.5033" height="68" filterUnits="userSpaceOnUse" color-interpolation-filters="sRGB">
							<feFlood flood-opacity="0" result="BackgroundImageFix"/>
							<feColorMatrix in="SourceAlpha" type="matrix" values="0 0 0 0 0 0 0 0 0 0 0 0 0 0 0 0 0 0 127 0"/>
							<feOffset dx="1" dy="1"/>
							<feGaussianBlur stdDeviation="1"/>
							<feColorMatrix type="matrix" values="0 0 0 0 0.533333 0 0 0 0 0.619608 0 0 0 0 0.639216 0 0 0 0.6 0"/>
							<feBlend mode="normal" in2="BackgroundImageFix" result="effect1_dropShadow"/>
							<feBlend mode="normal" in="SourceGraphic" in2="effect1_dropShadow" result="shape"/>
					</filter>
			</defs>
	</svg>